<svg width="375" height="107" viewBox="0 0 375 107" fill="none" xmlns="http://www.w3.org/2000/svg">
<g filter="url(#filter0_d_1369_378)">
<path fill-rule="evenodd" clip-rule="evenodd" d="M47.3043 45C47.9661 45 48.6187 44.9565 49.2598 44.8719C62.9483 43.0656 74.8016 27 88.6087 27H367C371.418 27 375 30.5817 375 35V99C375 103.418 371.418 107 367 107H8C3.58172 107 0 103.418 0 99V29C0 27.8954 0.895431 27 2 27H6C19.8071 27 31.6604 43.0656 45.3489 44.8719C45.99 44.9565 46.6426 45 47.3043 45Z" fill="white"/>
</g>
<defs>
<filter id="filter0_d_1369_378" x="-20" y="0" width="415" height="120" filterUnits="userSpaceOnUse" color-interpolation-filters="sRGB">
<feFlood flood-opacity="0" result="BackgroundImageFix"/>
<feColorMatrix in="SourceAlpha" type="matrix" values="0 0 0 0 0 0 0 0 0 0 0 0 0 0 0 0 0 0 127 0" result="hardAlpha"/>
<feOffset dy="-7"/>
<feGaussianBlur stdDeviation="10"/>
<feComposite in2="hardAlpha" operator="out"/>
<feColorMatrix type="matrix" values="0 0 0 0 0.445833 0 0 0 0 0.406823 0 0 0 0 0.406823 0 0 0 0.1 0"/>
<feBlend mode="normal" in2="BackgroundImageFix" result="effect1_dropShadow_1369_378"/>
<feBlend mode="normal" in="SourceGraphic" in2="effect1_dropShadow_1369_378" result="shape"/>
</filter>
</defs>
</svg>
